<svg xmlns="http://www.w3.org/2000/svg" height="128" width="128" xmlns:v="https://vecta.io/nano"><path d="M16 0C7.14 0 0 7.13 0 15.99v95.98c0 8.86 7.13 15.99 16 15.99h96c8.86 0 16-7.13 16-15.99V15.99A15.97 15.97 0 0 0 112 0z" fill="#999"/><path d="M16 0C7.14 0 0 7.13 0 15.99v95.98c0 8.86 7.13 15.99 16 15.99h96c8.86 0 16-7.13 16-15.99V15.99A15.97 15.97 0 0 0 112 0zm0 4h96c6.64 0 12 5.35 12 11.99v95.98a11.97 11.97 0 0 1-12 11.99H16c-6.64 0-12-5.35-12-11.99V15.99C4 9.35 9.36 4 16 4z" fill-opacity=".779"/><path d="M105.022 79.988s-.136-.836-.216-.829l-15.171 1.464c-1.207.117-2.145 1.079-2.229 2.289l-.417 5.974-11.737.837-.798-5.414a2.49 2.49 0 0 0-2.447-2.112H55.994a2.49 2.49 0 0 0-2.446 2.112l-.799 5.414-11.737-.837-.417-5.974c-.085-1.21-1.022-2.173-2.229-2.289l-15.179-1.463c-.078-.008-.136.829-.214.829l-.021 3.283 12.855 2.073.421 6.027c.085 1.22 1.07 2.207 2.291 2.294l16.165 1.153.182.007c1.215 0 2.265-.908 2.442-2.112l.821-5.571h11.743l.821 5.571c.177 1.204 1.229 2.112 2.445 2.112l.177-.006 16.167-1.153c1.221-.088 2.206-1.074 2.291-2.294l.421-6.027 12.85-2.082z" fill="gray"/><path d="M22.972 55.231v19.923 2.53 2.303l.135.006 15.177 1.463c.795.077 1.418.717 1.473 1.513l.468 6.7 13.239.945.912-6.183c.118-.802.806-1.396 1.617-1.396h16.012c.811 0 1.498.594 1.616 1.396l.912 6.183 13.24-.945.468-6.7c.056-.797.678-1.436 1.473-1.513l15.171-1.463.135-.006v-1.975l.006-.002V55.231c2.137-2.69 4.161-5.658 5.711-8.155-2.369-4.034-5.273-7.638-8.376-10.978-2.878 1.449-5.674 3.09-8.314 4.836-1.321-1.313-2.809-2.388-4.271-3.51-1.436-1.154-3.055-1.999-4.59-2.985.457-3.403.683-6.754.774-10.251-3.961-1.993-8.184-3.315-12.457-4.264-1.706 2.867-3.266 5.971-4.624 9.006-1.611-.269-3.229-.369-4.85-.388v-.003c-.011 0-.022.003-.031.003s-.021-.003-.031-.003v.003c-1.624.019-3.241.119-4.852.388-1.358-3.035-2.917-6.139-4.625-9.006-4.27.949-8.494 2.271-12.455 4.264.091 3.497.317 6.848.775 10.251-1.538.985-3.154 1.831-4.591 2.985-1.46 1.123-2.95 2.197-4.272 3.51a81.8 81.8 0 0 0-8.314-4.836c-3.103 3.34-6.005 6.945-8.375 10.978 1.863 2.924 3.861 5.863 5.711 8.155zm68.434 29.347l-.47 6.735c-.057.812-.702 1.458-1.514 1.516l-16.166 1.154-.118.004c-.803 0-1.496-.59-1.615-1.396l-.927-6.287H57.405l-.927 6.287c-.125.846-.881 1.455-1.733 1.392L38.579 92.83c-.812-.058-1.458-.704-1.514-1.516l-.47-6.735-13.647-1.316.025 3.393c0 14.413 18.284 21.341 41 21.421H64h.028c22.716-.08 40.994-7.007 40.994-21.421l.026-3.393z" fill="#fff"/><path d="M51.632 65.281a9.15 9.15 0 0 1-9.146 9.147 9.15 9.15 0 0 1-9.145-9.147c0-5.05 4.096-9.142 9.145-9.142s9.146 4.092 9.146 9.142" fill="gray"/><path d="M49.431 65.823a6.07 6.07 0 1 1-12.142 0c0-3.352 2.718-6.071 6.071-6.071a6.07 6.07 0 0 1 6.071 6.071" fill="#fff"/><path d="M64 75.26c-1.626 0-2.944-1.198-2.944-2.676v-8.42c0-1.476 1.318-2.676 2.944-2.676s2.947 1.2 2.947 2.676v8.42c0 1.477-1.321 2.676-2.947 2.676m12.369-9.979a9.15 9.15 0 0 0 9.147 9.147 9.15 9.15 0 0 0 9.144-9.147c0-5.05-4.095-9.142-9.144-9.142a9.15 9.15 0 0 0-9.147 9.142" fill="gray"/><path d="M78.57 65.823a6.07 6.07 0 0 0 6.068 6.069 6.07 6.07 0 1 0 0-12.14 6.07 6.07 0 0 0-6.068 6.071" fill="#fff"/></svg>